#N canvas 1512 118 744 684 12;
#X obj 161 145 comport;
#X msg 160 84 devices;
#X obj 160 294 pdchoco/slip_parse;
#X obj 162 552 netsend -u -b;
#X msg 288 515 disconnect;
#X msg 238 87 close;
#X text 167 59 RECEVOIR LES DONNEES DU MICROCONTRÔLEUR;
#X text 180 447 ENVOYER LES DONNEES VERS LE LOGICIEL;
#X msg 248 118 close \, baud 115200 \, open 4;
#X obj 353 363 oscparse;
#X obj 417 308 tgl 19 0 empty empty empty 0 -10 0 12 #fcfcfc #000000 #000000 0 1;
#X obj 353 336 spigot;
#X text 351 307 DEBOGAGE;
#X obj 351 391 print OSC;
#X obj 416 171 tgl 19 0 empty empty empty 0 -10 0 12 #fcfcfc #000000 #000000 0 1;
#X obj 352 199 spigot;
#X text 350 170 DEBOGAGE;
#X obj 352 236 print COM;
#X obj 121 171 bng 19 250 50 0 empty empty empty 0 -10 0 12 #fcfcfc #000000 #000000;
#X obj 135 324 bng 19 250 50 0 empty empty empty 0 -10 0 12 #fcfcfc #000000 #000000;
#X msg 281 487 disconnect \, connect 127.0.0.1 7001;
#X connect 0 0 2 0;
#X connect 0 0 15 0;
#X connect 0 0 18 0;
#X connect 1 0 0 0;
#X connect 2 0 3 0;
#X connect 2 0 11 0;
#X connect 2 0 19 0;
#X connect 4 0 3 0;
#X connect 5 0 0 0;
#X connect 8 0 0 0;
#X connect 9 0 13 0;
#X connect 10 0 11 1;
#X connect 11 0 9 0;
#X connect 14 0 15 1;
#X connect 15 0 17 0;
#X connect 20 0 3 0;
